<?xml version="1.0" standalone="no"?><!-- Generator: Gravit.io --><svg xmlns="http://www.w3.org/2000/svg" xmlns:xlink="http://www.w3.org/1999/xlink" style="isolation:isolate" viewBox="683 238 553 553" width="553" height="553"><defs><clipPath id="_clipPath_IKCQX0K1EaQZM8xe8qZEaS2jds1w0aP3"><rect x="683" y="238" width="553" height="553"/></clipPath></defs><g clip-path="url(#_clipPath_IKCQX0K1EaQZM8xe8qZEaS2jds1w0aP3)"><path d="M 741.065 238 L 1177.935 238 C 1209.982 238 1236 264.018 1236 296.065 L 1236 732.935 C 1236 764.982 1209.982 791 1177.935 791 L 741.065 791 C 709.018 791 683 764.982 683 732.935 L 683 296.065 C 683 264.018 709.018 238 741.065 238 Z" style="stroke:none;fill:#6386D9;stroke-miterlimit:10;"/><path d=" M 872.618 672.067 L 855.687 702.707 C 823.639 684.984 796.61 659.402 777.155 628.372 C 767.311 612.686 759.557 595.796 754.067 578.117 C 748.405 559.834 745.202 540.884 744.544 521.765 C 744.026 507.215 744.989 492.652 747.409 478.289 C 749.753 464.339 753.488 450.66 758.55 437.445 C 768.482 411.523 783.331 387.75 802.274 367.457 C 821.197 347.144 843.876 330.672 869.042 318.957 C 881.872 312.985 895.257 308.306 909.009 304.994 C 923.169 301.577 937.629 299.601 952.18 299.103 C 966.731 298.585 981.293 299.548 995.656 301.968 C 1009.607 304.312 1023.286 308.047 1036.5 313.109 C 1062.423 323.04 1086.195 337.89 1106.489 356.833 C 1126.802 375.756 1143.273 398.435 1154.988 423.601 C 1160.96 436.431 1165.64 449.815 1168.952 463.568 C 1172.368 477.728 1174.344 492.188 1174.842 506.739 C 1175.575 527.446 1173.326 548.147 1168.143 568.21 C 1163.117 587.597 1155.401 606.188 1145.217 623.434 C 1135.174 640.455 1122.84 656.015 1108.569 669.691 C 1094.249 683.409 1078.107 695.09 1060.601 704.396 L 1044.172 673.501 C 1058.839 665.694 1072.356 655.917 1084.352 644.421 C 1096.319 632.956 1106.66 619.907 1115.077 605.645 C 1123.599 591.219 1130.05 575.664 1134.257 559.448 C 1138.593 542.646 1140.479 525.31 1139.863 507.96 C 1139.448 495.768 1137.794 483.648 1134.938 471.78 C 1132.155 460.28 1128.242 449.09 1123.255 438.368 C 1113.443 417.277 1099.641 398.287 1082.618 382.432 C 1065.613 366.556 1045.707 354.113 1023.983 345.796 C 1012.939 341.569 1001.503 338.446 989.837 336.472 C 977.799 334.451 965.594 333.646 953.402 334.082 C 941.209 334.498 929.089 336.152 917.221 339.008 C 905.722 341.791 894.531 345.704 883.809 350.691 C 862.718 360.503 843.728 374.304 827.873 391.328 C 811.997 408.332 799.554 428.239 791.237 449.962 C 787.01 461.006 783.887 472.442 781.913 484.108 C 779.892 496.146 779.087 508.352 779.523 520.544 C 780.073 536.564 782.748 552.441 787.495 567.744 C 792.084 582.533 798.581 596.665 806.804 609.776 C 823.111 635.783 845.754 657.226 872.618 672.067 Z " fill="rgb(238,238,238)"/><path d=" M 907.131 602.658 C 877.179 584.709 857.123 551.928 857.123 514.5 C 857.123 457.791 903.164 411.75 959.873 411.75 C 1016.583 411.75 1062.623 457.791 1062.623 514.5 C 1062.623 555.087 1039.04 590.209 1004.832 606.882 M 1004.832 606.882 C 991.256 613.529 975.996 617.25 959.873 617.25 C 940.592 617.25 922.545 611.928 907.131 602.658" fill-rule="evenodd" fill="rgb(235,235,235)"/><circle vector-effect="non-scaling-stroke" cx="959.8734653698164" cy="704.5589811132883" r="35.29090228356188" fill="rgb(235,235,235)"/></g></svg>